<svg width="600" height="450" xmlns="http://www.w3.org/2000/svg" xmlns:xlink="http://www.w3.org/1999/xlink" xml:space="preserve" overflow="hidden"><defs><clipPath id="clip0"><rect x="0" y="0" width="600" height="450"/></clipPath></defs><g clip-path="url(#clip0)"><path d="M0 0 600 0 600 450 0 450Z" fill="#FFFFFF"/><path d="M100.5 285.5 170.5 285.5 170.5 300.5 100.5 300.5Z" stroke="#A6A6A6" stroke-width="0.625" stroke-linejoin="round" stroke-miterlimit="10" fill="#A6A6A6"/><text fill="#FFFFFF" font-family="Times New Roman,Times New Roman_MSFontService,sans-serif" font-weight="400" font-size="8" transform="translate(116.309 295)">4</text><text fill="#FFFFFF" font-family="Times New Roman,Times New Roman_MSFontService,sans-serif" font-weight="400" font-size="8" transform="translate(120.309 295)">.</text><text fill="#FFFFFF" font-family="Times New Roman,Times New Roman_MSFontService,sans-serif" font-weight="400" font-size="8" transform="translate(123.809 295)">OHSA</text><text fill="#FFFFFF" font-family="Times New Roman,Times New Roman_MSFontService,sans-serif" font-weight="400" font-size="8" transform="translate(145.59 295)">.</text><text fill="#FFFFFF" font-family="Times New Roman,Times New Roman_MSFontService,sans-serif" font-weight="400" font-size="8" transform="translate(146.1 295)">py</text><path d="M137.965 373.18 135.445 304.672 135.861 304.656 138.382 373.165ZM133.186 305.589 135.5 300.5 138.182 305.405Z" fill="#A6A6A6"/><path d="M298.5 122C298.5 116.201 317.08 111.5 340 111.5 362.92 111.5 381.5 116.201 381.5 122 381.5 127.799 362.92 132.5 340 132.5 317.08 132.5 298.5 127.799 298.5 122Z" stroke="#000000" stroke-width="0.625" stroke-linejoin="round" stroke-miterlimit="10" fill="#70AD47" fill-rule="evenodd"/><text fill="#FFFFFF" font-family="Times New Roman,Times New Roman_MSFontService,sans-serif" font-weight="400" font-size="8" transform="translate(317.47 124)">Sub</text><text fill="#FFFFFF" font-family="Times New Roman,Times New Roman_MSFontService,sans-serif" font-weight="400" font-size="8" transform="translate(329.919 124)">_</text><text fill="#FFFFFF" font-family="Times New Roman,Times New Roman_MSFontService,sans-serif" font-weight="400" font-size="8" transform="translate(333.919 124)">catch</text><text fill="#FFFFFF" font-family="Times New Roman,Times New Roman_MSFontService,sans-serif" font-weight="400" font-size="8" transform="translate(350.794 124)">.</text><text fill="#FFFFFF" font-family="Times New Roman,Times New Roman_MSFontService,sans-serif" font-weight="400" font-size="8" transform="translate(352.794 124)">shp</text><path d="M0.0338161-0.205571 57.5433 9.25466 57.4757 9.6658-0.0338161 0.205571ZM57.093 6.85812 61.6209 10.1365 56.2814 11.7918Z" fill="#A6A6A6" transform="matrix(1 0 0 -1 73.5 310.637)"/><path d="M20.5 321C20.5 315.201 44.2289 310.5 73.5 310.5 102.771 310.5 126.5 315.201 126.5 321 126.5 326.799 102.771 331.5 73.5 331.5 44.2289 331.5 20.5 326.799 20.5 321Z" stroke="#A6A6A6" stroke-width="0.625" stroke-linejoin="round" stroke-miterlimit="10" fill="#A6A6A6" fill-rule="evenodd"/><text fill="#FFFFFF" font-family="Times New Roman,Times New Roman_MSFontService,sans-serif" font-weight="400" font-size="8" transform="translate(46.7709 323)">stream</text><text fill="#FFFFFF" font-family="Times New Roman,Times New Roman_MSFontService,sans-serif" font-weight="400" font-size="8" transform="translate(68.0951 323)">_</text><text fill="#FFFFFF" font-family="Times New Roman,Times New Roman_MSFontService,sans-serif" font-weight="400" font-size="8" transform="translate(72.0951 323)">totalP</text><text fill="#FFFFFF" font-family="Times New Roman,Times New Roman_MSFontService,sans-serif" font-weight="400" font-size="8" transform="translate(90.7631 323)">.</text><text fill="#FFFFFF" font-family="Times New Roman,Times New Roman_MSFontService,sans-serif" font-weight="400" font-size="8" transform="translate(92.7631 323)">csv</text><path d="M341.5 148.5 439.5 148.5 439.5 163.5 341.5 163.5Z" stroke="#000000" stroke-width="0.625" stroke-linejoin="round" stroke-miterlimit="10" fill="#FFC000"/><text font-family="Times New Roman,Times New Roman_MSFontService,sans-serif" font-weight="400" font-size="8" transform="translate(347.7 158)">3</text><text font-family="Times New Roman,Times New Roman_MSFontService,sans-serif" font-weight="400" font-size="8" transform="translate(351.7 158)">.</text><text font-family="Times New Roman,Times New Roman_MSFontService,sans-serif" font-weight="400" font-size="8" transform="translate(355.2 158)">watershed</text><text font-family="Times New Roman,Times New Roman_MSFontService,sans-serif" font-weight="400" font-size="8" transform="translate(387.63 158)">_</text><text font-family="Times New Roman,Times New Roman_MSFontService,sans-serif" font-weight="400" font-size="8" transform="translate(391.63 158)">analysis</text><text font-family="Times New Roman,Times New Roman_MSFontService,sans-serif" font-weight="400" font-size="8" transform="translate(417.403 158)">.</text><text font-family="Times New Roman,Times New Roman_MSFontService,sans-serif" font-weight="400" font-size="8" transform="translate(419.403 158)">ipynb</text><path d="M390.294 148.503 343.417 133.935 343.541 133.538 390.417 148.105ZM343.533 136.371 339.5 132.5 345.017 131.596Z"/><path d="M81.5 383.5C81.5 377.425 106.796 372.5 138 372.5 169.204 372.5 194.5 377.425 194.5 383.5 194.5 389.575 169.204 394.5 138 394.5 106.796 394.5 81.5 389.575 81.5 383.5Z" stroke="#A6A6A6" stroke-width="0.625" stroke-linejoin="round" stroke-miterlimit="10" fill="#A6A6A6" fill-rule="evenodd"/><text fill="#FFFFFF" font-family="Times New Roman,Times New Roman_MSFontService,sans-serif" font-weight="400" font-size="8" transform="translate(108.149 385)">resultphyschem</text><text fill="#FFFFFF" font-family="Times New Roman,Times New Roman_MSFontService,sans-serif" font-weight="400" font-size="8" transform="translate(158.36 385)">.</text><text fill="#FFFFFF" font-family="Times New Roman,Times New Roman_MSFontService,sans-serif" font-weight="400" font-size="8" transform="translate(160.36 385)">csv</text><path d="M213.5 222.5C213.5 213.111 234.095 205.5 259.5 205.5 284.905 205.5 305.5 213.111 305.5 222.5 305.5 231.889 284.905 239.5 259.5 239.5 234.095 239.5 213.5 231.889 213.5 222.5Z" stroke="#000000" stroke-width="0.625" stroke-linejoin="round" stroke-miterlimit="10" fill="#4472C4" fill-rule="evenodd"/><text fill="#FFFFFF" font-family="Times New Roman,Times New Roman_MSFontService,sans-serif" font-weight="400" font-size="8" transform="translate(235.149 220)">station</text><text fill="#FFFFFF" font-family="Times New Roman,Times New Roman_MSFontService,sans-serif" font-weight="400" font-size="8" transform="translate(256.481 220)">_</text><text fill="#FFFFFF" font-family="Times New Roman,Times New Roman_MSFontService,sans-serif" font-weight="400" font-size="8" transform="translate(260.481 220)">data</text><text fill="#FFFFFF" font-family="Times New Roman,Times New Roman_MSFontService,sans-serif" font-weight="400" font-size="8" transform="translate(273.805 220)">.</text><text fill="#FFFFFF" font-family="Times New Roman,Times New Roman_MSFontService,sans-serif" font-weight="400" font-size="8" transform="translate(275.805 220)">csv</text><text fill="#FFFFFF" font-family="Times New Roman,Times New Roman_MSFontService,sans-serif" font-weight="400" font-size="8" transform="translate(235.149 229)">stream</text><text fill="#FFFFFF" font-family="Times New Roman,Times New Roman_MSFontService,sans-serif" font-weight="400" font-size="8" transform="translate(256.473 229)">_</text><text fill="#FFFFFF" font-family="Times New Roman,Times New Roman_MSFontService,sans-serif" font-weight="400" font-size="8" transform="translate(260.473 229)">data</text><text fill="#FFFFFF" font-family="Times New Roman,Times New Roman_MSFontService,sans-serif" font-weight="400" font-size="8" transform="translate(273.797 229)">.</text><text fill="#FFFFFF" font-family="Times New Roman,Times New Roman_MSFontService,sans-serif" font-weight="400" font-size="8" transform="translate(275.797 229)">csv</text><path d="M49.5 250.5C49.5 241.111 67.4086 233.5 89.5 233.5 111.591 233.5 129.5 241.111 129.5 250.5 129.5 259.889 111.591 267.5 89.5 267.5 67.4086 267.5 49.5 259.889 49.5 250.5Z" stroke="#A6A6A6" stroke-width="0.625" stroke-linejoin="round" stroke-miterlimit="10" fill="#A6A6A6" fill-rule="evenodd"/><text fill="#FFFFFF" font-family="Times New Roman,Times New Roman_MSFontService,sans-serif" font-weight="400" font-size="8" transform="translate(67.6177 248)">OHS</text><text fill="#FFFFFF" font-family="Times New Roman,Times New Roman_MSFontService,sans-serif" font-weight="400" font-size="8" transform="translate(83.6216 248)">_</text><text fill="#FFFFFF" font-family="Times New Roman,Times New Roman_MSFontService,sans-serif" font-weight="400" font-size="8" transform="translate(87.6216 248)">TotalP</text><text fill="#FFFFFF" font-family="Times New Roman,Times New Roman_MSFontService,sans-serif" font-weight="400" font-size="8" transform="translate(108.395 248)">_</text><text fill="#FFFFFF" font-family="Times New Roman,Times New Roman_MSFontService,sans-serif" font-weight="400" font-size="8" transform="translate(73.1385 257)">output</text><text fill="#FFFFFF" font-family="Times New Roman,Times New Roman_MSFontService,sans-serif" font-weight="400" font-size="8" transform="translate(93.5838 257)">.</text><text fill="#FFFFFF" font-family="Times New Roman,Times New Roman_MSFontService,sans-serif" font-weight="400" font-size="8" transform="translate(95.5838 257)">shp</text><path d="M135.513 285.188 93.3216 269.173 93.4694 268.784 135.661 284.798ZM93.2874 271.612 89.5 267.5 95.0617 266.937Z" fill="#A6A6A6"/><path d="M206.4 315.863 139.531 301.574 139.618 301.167 206.487 315.455ZM139.867 303.99 135.5 300.5 140.912 299.1Z" fill="#A6A6A6"/><path d="M172.5 326C172.5 320.201 187.722 315.5 206.5 315.5 225.278 315.5 240.5 320.201 240.5 326 240.5 331.799 225.278 336.5 206.5 336.5 187.722 336.5 172.5 331.799 172.5 326Z" stroke="#A6A6A6" stroke-width="0.625" stroke-linejoin="round" stroke-miterlimit="10" fill="#A6A6A6" fill-rule="evenodd"/><text fill="#FFFFFF" font-family="Times New Roman,Times New Roman_MSFontService,sans-serif" font-weight="400" font-size="8" transform="translate(189.96 328)">station</text><text fill="#FFFFFF" font-family="Times New Roman,Times New Roman_MSFontService,sans-serif" font-weight="400" font-size="8" transform="translate(211.292 328)">.</text><text fill="#FFFFFF" font-family="Times New Roman,Times New Roman_MSFontService,sans-serif" font-weight="400" font-size="8" transform="translate(213.292 328)">csv</text><text font-family="Times New Roman,Times New Roman_MSFontService,sans-serif" font-weight="700" font-size="8" transform="translate(23.1772 36)">Mapping Model Method</text><path d="M169.5 436.5 174 427.5 241 427.5 245.5 436.5 241 445.5 174 445.5Z" stroke="#000000" stroke-width="0.625" stroke-linejoin="round" stroke-miterlimit="10" fill="none" fill-rule="evenodd"/><text font-family="Times New Roman,Times New Roman_MSFontService,sans-serif" font-weight="400" font-size="8" transform="translate(185.219 439)">USGS</text><text font-family="Times New Roman,Times New Roman_MSFontService,sans-serif" font-weight="400" font-size="8" transform="translate(206.26 439)">-</text><text font-family="Times New Roman,Times New Roman_MSFontService,sans-serif" font-weight="400" font-size="8" transform="translate(210.635 439)">NWD</text><path d="M19.5 356 24.25 346.5 89.75 346.5 94.5 356 89.75 365.5 24.25 365.5Z" stroke="#000000" stroke-width="0.625" stroke-linejoin="round" stroke-miterlimit="10" fill="none" fill-rule="evenodd"/><text font-family="Times New Roman,Times New Roman_MSFontService,sans-serif" font-weight="400" font-size="8" transform="translate(40.6805 358)">WI</text><text font-family="Times New Roman,Times New Roman_MSFontService,sans-serif" font-weight="400" font-size="8" transform="translate(52.1388 358)">-</text><text font-family="Times New Roman,Times New Roman_MSFontService,sans-serif" font-weight="400" font-size="8" transform="translate(56.5138 358)">DNR</text><path d="M0.0611733-0.19915 45.9956 13.9106 45.8733 14.3089-0.0611733 0.19915ZM45.8719 11.4753 49.9175 15.3333 44.4038 16.2549Z" fill="#A6A6A6" transform="matrix(1 0 0 -1 23.5 346.833)"/><path d="M174.52 427.503 141.444 397.456 141.724 397.147 174.8 427.195ZM140.52 399.712 138.5 394.5 143.882 396.012Z" fill="#A6A6A6"/><path d="M150.5 357 155.25 347.5 235.75 347.5 240.5 357 235.75 366.5 155.25 366.5Z" stroke="#000000" stroke-width="0.625" stroke-linejoin="round" stroke-miterlimit="10" fill="none" fill-rule="evenodd"/><text font-family="Times New Roman,Times New Roman_MSFontService,sans-serif" font-weight="400" font-size="8" transform="translate(168.601 359)">NWQMC</text><text font-family="Times New Roman,Times New Roman_MSFontService,sans-serif" font-weight="400" font-size="8" transform="translate(200.059 359)">-</text><text font-family="Times New Roman,Times New Roman_MSFontService,sans-serif" font-weight="400" font-size="8" transform="translate(204.434 359)">WQP</text><path d="M235.688 347.891 210.317 338.184 210.466 337.794 235.837 347.502ZM210.276 340.622 206.5 336.5 212.063 335.952Z" fill="#A6A6A6"/><path d="M0.207242-0.0212918 19.01 182.994 18.5955 183.037-0.207242 0.0212918ZM21.2044 181.93 19.2285 187.159 16.2306 182.441Z" transform="matrix(1 0 0 -1 240.5 426.659)"/><path d="M0.0642764-0.19817 126.985 40.9686 126.857 41.365-0.0642764 0.19817ZM126.9 38.5316 130.884 42.4523 125.357 43.2877Z" transform="matrix(1 0 0 -1 259.5 205.952)"/><path d="M421.5 300.5C421.5 291.111 440.976 283.5 465 283.5 489.024 283.5 508.5 291.111 508.5 300.5 508.5 309.889 489.024 317.5 465 317.5 440.976 317.5 421.5 309.889 421.5 300.5Z" stroke="#000000" stroke-width="0.625" stroke-linejoin="round" stroke-miterlimit="10" fill="#70AD47" fill-rule="evenodd"/><text fill="#FFFFFF" font-family="Times New Roman,Times New Roman_MSFontService,sans-serif" font-weight="400" font-size="8" transform="translate(445.196 298)">WICatch</text><text fill="#FFFFFF" font-family="Times New Roman,Times New Roman_MSFontService,sans-serif" font-weight="400" font-size="8" transform="translate(474.071 298)">.</text><text fill="#FFFFFF" font-family="Times New Roman,Times New Roman_MSFontService,sans-serif" font-weight="400" font-size="8" transform="translate(476.071 298)">shp</text><text fill="#FFFFFF" font-family="Times New Roman,Times New Roman_MSFontService,sans-serif" font-weight="400" font-size="8" transform="translate(443.946 307)">WIHUCS</text><text fill="#FFFFFF" font-family="Times New Roman,Times New Roman_MSFontService,sans-serif" font-weight="400" font-size="8" transform="translate(475.501 307)">.</text><text fill="#FFFFFF" font-family="Times New Roman,Times New Roman_MSFontService,sans-serif" font-weight="400" font-size="8" transform="translate(477.501 307)">shp</text><path d="M370.5 439 375.25 429.5 445.75 429.5 450.5 439 445.75 448.5 375.25 448.5Z" stroke="#000000" stroke-width="0.625" stroke-linejoin="round" stroke-miterlimit="10" fill="none" fill-rule="evenodd"/><text font-family="Times New Roman,Times New Roman_MSFontService,sans-serif" font-weight="400" font-size="8" transform="translate(387.016 441)">USEPA</text><text font-family="Times New Roman,Times New Roman_MSFontService,sans-serif" font-weight="400" font-size="8" transform="translate(412.641 441)">-</text><text font-family="Times New Roman,Times New Roman_MSFontService,sans-serif" font-weight="400" font-size="8" transform="translate(417.016 441)">NHD</text><path d="M0.040001-0.204457 95.5751 18.4865 95.4951 18.8954-0.040001 0.204457ZM95.1973 16.0775 99.6243 19.491 94.2373 20.9845Z" transform="matrix(1 0 0 -1 365.5 336.991)"/><path d="M322.5 299.5C322.5 290.111 345.557 282.5 374 282.5 402.443 282.5 425.5 290.111 425.5 299.5 425.5 308.889 402.443 316.5 374 316.5 345.557 316.5 322.5 308.889 322.5 299.5Z" stroke="#000000" stroke-width="0.625" stroke-linejoin="round" stroke-miterlimit="10" fill="#70AD47" fill-rule="evenodd"/><text fill="#FFFFFF" font-family="Times New Roman,Times New Roman_MSFontService,sans-serif" font-weight="400" font-size="8" transform="translate(353.619 297)">WILakes</text><text fill="#FFFFFF" font-family="Times New Roman,Times New Roman_MSFontService,sans-serif" font-weight="400" font-size="8" transform="translate(382.935 297)">.</text><text fill="#FFFFFF" font-family="Times New Roman,Times New Roman_MSFontService,sans-serif" font-weight="400" font-size="8" transform="translate(384.935 297)">shp</text><text fill="#FFFFFF" font-family="Times New Roman,Times New Roman_MSFontService,sans-serif" font-weight="400" font-size="8" transform="translate(352.786 306)">WIRivers</text><text fill="#FFFFFF" font-family="Times New Roman,Times New Roman_MSFontService,sans-serif" font-weight="400" font-size="8" transform="translate(383.888 306)">.</text><text fill="#FFFFFF" font-family="Times New Roman,Times New Roman_MSFontService,sans-serif" font-weight="400" font-size="8" transform="translate(385.888 306)">shp</text><path d="M0.207402-0.0196794 2.87622 28.107 2.46141 28.1464-0.207402 0.0196794ZM5.07892 27.0609 3.0624 32.2747 0.101275 27.5332Z" transform="matrix(1 0 0 -1 374.5 282.775)"/><path d="M0.0367523-0.205066 20.3183 3.42984 20.2448 3.83997-0.0367523 0.205066ZM19.9023 1.0271 24.3829 4.36995 19.0203 5.94868Z" transform="matrix(1 0 0 -1 446.5 428.87)"/><path d="M465.732 284.23 381.321 252.174 381.469 251.784 465.879 283.84ZM381.287 254.612 377.5 250.5 383.062 249.938Z"/><path d="M0.193574-0.0770182 6.90957 16.8027 6.52243 16.9567-0.193574 0.0770182ZM8.73082 15.1812 8.25636 20.7512 4.08504 17.0296Z" transform="matrix(1 0 0 -1 365.5 337.251)"/><path d="M312.5 337.5 418.5 337.5 418.5 352.5 312.5 352.5Z" stroke="#000000" stroke-width="0.625" stroke-linejoin="round" stroke-miterlimit="10" fill="#FFC000"/><text font-family="Times New Roman,Times New Roman_MSFontService,sans-serif" font-weight="400" font-size="8" transform="translate(341.092 347)">1</text><text font-family="Times New Roman,Times New Roman_MSFontService,sans-serif" font-weight="400" font-size="8" transform="translate(345.092 347)">.</text><text font-family="Times New Roman,Times New Roman_MSFontService,sans-serif" font-weight="400" font-size="8" transform="translate(348.592 347)">HydroGraphs</text><path d="M323.5 234.5 430.5 234.5 430.5 250.5 323.5 250.5Z" stroke="#000000" stroke-width="0.625" stroke-linejoin="round" stroke-miterlimit="10" fill="#FFC000"/><text font-family="Times New Roman,Times New Roman_MSFontService,sans-serif" font-weight="400" font-size="8" transform="translate(334.807 244)">2</text><text font-family="Times New Roman,Times New Roman_MSFontService,sans-serif" font-weight="400" font-size="8" transform="translate(338.807 244)">.</text><text font-family="Times New Roman,Times New Roman_MSFontService,sans-serif" font-weight="400" font-size="8" transform="translate(342.307 244)">build</text><text font-family="Times New Roman,Times New Roman_MSFontService,sans-serif" font-weight="400" font-size="8" transform="translate(358.752 244)">_</text><text font-family="Times New Roman,Times New Roman_MSFontService,sans-serif" font-weight="400" font-size="8" transform="translate(362.752 244)">Yahara</text><text font-family="Times New Roman,Times New Roman_MSFontService,sans-serif" font-weight="400" font-size="8" transform="translate(385.045 244)">_</text><text font-family="Times New Roman,Times New Roman_MSFontService,sans-serif" font-weight="400" font-size="8" transform="translate(389.045 244)">data</text><text font-family="Times New Roman,Times New Roman_MSFontService,sans-serif" font-weight="400" font-size="8" transform="translate(402.37 244)">.</text><text font-family="Times New Roman,Times New Roman_MSFontService,sans-serif" font-weight="400" font-size="8" transform="translate(404.37 244)">ipynb</text><path d="M136.5 249.5C136.5 240.111 154.632 232.5 177 232.5 199.368 232.5 217.5 240.111 217.5 249.5 217.5 258.889 199.368 266.5 177 266.5 154.632 266.5 136.5 258.889 136.5 249.5Z" stroke="#A6A6A6" stroke-width="0.625" stroke-linejoin="round" stroke-miterlimit="10" fill="#A6A6A6" fill-rule="evenodd"/><text fill="#FFFFFF" font-family="Times New Roman,Times New Roman_MSFontService,sans-serif" font-weight="400" font-size="8" transform="translate(155.47 247)">OHS</text><text fill="#FFFFFF" font-family="Times New Roman,Times New Roman_MSFontService,sans-serif" font-weight="400" font-size="8" transform="translate(171.474 247)">_</text><text fill="#FFFFFF" font-family="Times New Roman,Times New Roman_MSFontService,sans-serif" font-weight="400" font-size="8" transform="translate(175.474 247)">TotalP</text><text fill="#FFFFFF" font-family="Times New Roman,Times New Roman_MSFontService,sans-serif" font-weight="400" font-size="8" transform="translate(196.247 247)">_</text><text fill="#FFFFFF" font-family="Times New Roman,Times New Roman_MSFontService,sans-serif" font-weight="400" font-size="8" transform="translate(161.2 256)">output</text><text fill="#FFFFFF" font-family="Times New Roman,Times New Roman_MSFontService,sans-serif" font-weight="400" font-size="8" transform="translate(181.645 256)">.</text><text fill="#FFFFFF" font-family="Times New Roman,Times New Roman_MSFontService,sans-serif" font-weight="400" font-size="8" transform="translate(183.645 256)">dbf</text><path d="M0.0850445-0.190185 38.0474 16.7854 37.8774 17.1658-0.0850445 0.190185ZM38.2222 14.3532 41.7661 18.6764 36.1811 18.9176Z" fill="#A6A6A6" transform="matrix(1 0 0 -1 135.5 285.176)"/><path d="M433.5 407.5C433.5 398.111 450.065 390.5 470.5 390.5 490.935 390.5 507.5 398.111 507.5 407.5 507.5 416.889 490.935 424.5 470.5 424.5 450.065 424.5 433.5 416.889 433.5 407.5Z" stroke="#000000" stroke-width="0.625" stroke-linejoin="round" stroke-miterlimit="10" fill="#4472C4" fill-rule="evenodd"/><text fill="#FFFFFF" font-family="Times New Roman,Times New Roman_MSFontService,sans-serif" font-weight="400" font-size="8" transform="translate(455.357 405)">NHDPlus</text><text fill="#FFFFFF" font-family="Times New Roman,Times New Roman_MSFontService,sans-serif" font-weight="400" font-size="8" transform="translate(452.232 414)">Catchments</text><path d="M251.5 274.5C251.5 268.425 270.752 263.5 294.5 263.5 318.248 263.5 337.5 268.425 337.5 274.5 337.5 280.575 318.248 285.5 294.5 285.5 270.752 285.5 251.5 280.575 251.5 274.5Z" stroke="#000000" stroke-width="0.625" stroke-linejoin="round" stroke-miterlimit="10" fill="#70AD47" fill-rule="evenodd"/><text fill="#FFFFFF" font-family="Times New Roman,Times New Roman_MSFontService,sans-serif" font-weight="400" font-size="8" transform="translate(271.654 276)">WItofroms</text><text fill="#FFFFFF" font-family="Times New Roman,Times New Roman_MSFontService,sans-serif" font-weight="400" font-size="8" transform="translate(306.756 276)">.</text><text fill="#FFFFFF" font-family="Times New Roman,Times New Roman_MSFontService,sans-serif" font-weight="400" font-size="8" transform="translate(308.756 276)">csv</text><path d="M365.586 337.721 297.741 288.127 297.987 287.791 365.832 337.385ZM297.061 290.469 294.5 285.5 300.012 286.432Z"/><path d="M348.5 213.5C348.5 207.425 367.976 202.5 392 202.5 416.024 202.5 435.5 207.425 435.5 213.5 435.5 219.575 416.024 224.5 392 224.5 367.976 224.5 348.5 219.575 348.5 213.5Z" stroke="#000000" stroke-width="0.625" stroke-linejoin="round" stroke-miterlimit="10" fill="#70AD47" fill-rule="evenodd"/><text fill="#FFFFFF" font-family="Times New Roman,Times New Roman_MSFontService,sans-serif" font-weight="400" font-size="8" transform="translate(372.085 215)">Yhu</text><text fill="#FFFFFF" font-family="Times New Roman,Times New Roman_MSFontService,sans-serif" font-weight="400" font-size="8" transform="translate(385.862 215)">_</text><text fill="#FFFFFF" font-family="Times New Roman,Times New Roman_MSFontService,sans-serif" font-weight="400" font-size="8" transform="translate(389.862 215)">gdf</text><text fill="#FFFFFF" font-family="Times New Roman,Times New Roman_MSFontService,sans-serif" font-weight="400" font-size="8" transform="translate(400.526 215)">.</text><text fill="#FFFFFF" font-family="Times New Roman,Times New Roman_MSFontService,sans-serif" font-weight="400" font-size="8" transform="translate(402.526 215)">shp</text><path d="M391.76 202.942 390.447 167.672 390.863 167.656 392.177 202.926ZM388.188 168.59 390.5 163.5 393.184 168.404Z"/><path d="M0.122036-0.168849 11.732 8.22231 11.4879 8.56001-0.122036 0.168849ZM12.399 5.87683 14.9869 10.8319 9.47013 9.9292Z" transform="matrix(1 0 0 -1 377.5 235.332)"/><path d="M285.5 406C285.5 400.201 304.528 395.5 328 395.5 351.472 395.5 370.5 400.201 370.5 406 370.5 411.799 351.472 416.5 328 416.5 304.528 416.5 285.5 411.799 285.5 406Z" stroke="#000000" stroke-width="0.625" stroke-linejoin="round" stroke-miterlimit="10" fill="#4472C4" fill-rule="evenodd"/><text fill="#FFFFFF" font-family="Times New Roman,Times New Roman_MSFontService,sans-serif" font-weight="400" font-size="8" transform="translate(305.428 408)">NHDSnapshot</text><path d="M366.5 406.5C366.5 397.111 381.498 389.5 400 389.5 418.502 389.5 433.5 397.111 433.5 406.5 433.5 415.889 418.502 423.5 400 423.5 381.498 423.5 366.5 415.889 366.5 406.5Z" stroke="#000000" stroke-width="0.625" stroke-linejoin="round" stroke-miterlimit="10" fill="#4472C4" fill-rule="evenodd"/><text fill="#FFFFFF" font-family="Times New Roman,Times New Roman_MSFontService,sans-serif" font-weight="400" font-size="8" transform="translate(384.984 404)">NHDPlus</text><text fill="#FFFFFF" font-family="Times New Roman,Times New Roman_MSFontService,sans-serif" font-weight="400" font-size="8" transform="translate(384.568 413)">Attributes</text><path d="M0.0452603-0.203358 20.8212 4.42064 20.7306 4.82735-0.0452603 0.203358ZM20.5056 2.00266 24.843 5.5292 19.4193 6.88324Z" transform="matrix(1 0 0 -1 375.5 429.029)"/><path d="M374.868 429.434 331.47 417.782 331.578 417.379 374.976 429.031ZM331.681 420.211 327.5 416.5 332.977 415.382Z"/><path d="M0.155892-0.138205 35.3478 39.5574 35.036 39.8338-0.155892 0.138205ZM36.5098 37.4135 37.956 42.8134 32.7684 40.7304Z" transform="matrix(1 0 0 -1 327.5 395.313)"/><path d="M399.655 389.879 368.17 355.706 368.477 355.423 399.962 389.596ZM367.049 357.871 365.5 352.5 370.727 354.483Z"/><path d="M470.11 391.092 369.34 354.13 369.484 353.739 470.253 390.701ZM369.333 356.569 365.5 352.5 371.055 351.875Z"/><path d="M251.5 374C251.5 368.201 268.065 363.5 288.5 363.5 308.935 363.5 325.5 368.201 325.5 374 325.5 379.799 308.935 384.5 288.5 384.5 268.065 384.5 251.5 379.799 251.5 374Z" stroke="#000000" stroke-width="0.625" stroke-linejoin="round" stroke-miterlimit="10" fill="#4472C4" fill-rule="evenodd"/><text fill="#FFFFFF" font-family="Times New Roman,Times New Roman_MSFontService,sans-serif" font-weight="400" font-size="8" transform="translate(270.083 376)">WBD</text><text fill="#FFFFFF" font-family="Times New Roman,Times New Roman_MSFontService,sans-serif" font-weight="400" font-size="8" transform="translate(288.747 376)">_</text><text fill="#FFFFFF" font-family="Times New Roman,Times New Roman_MSFontService,sans-serif" font-weight="400" font-size="8" transform="translate(292.747 376)">HU</text><text fill="#FFFFFF" font-family="Times New Roman,Times New Roman_MSFontService,sans-serif" font-weight="400" font-size="8" transform="translate(304.302 376)">2</text><path d="M0.137832-0.156221 45.0302 39.4516 44.7545 39.7641-0.137832 0.156221ZM45.9215 37.1819 48.0168 42.3645 42.6135 40.9312Z" transform="matrix(1 0 0 -1 240.5 426.865)"/><path d="M0.0555281-0.200797 47.331 12.8727 47.2199 13.2743-0.0555281 0.200797ZM47.1386 10.4418 51.2914 14.1841 45.8059 15.2609Z" transform="matrix(1 0 0 -1 314.5 366.684)"/><path d="M495.5 327 500.25 317.5 587.75 317.5 592.5 327 587.75 336.5 500.25 336.5Z" stroke="#000000" stroke-width="0.625" stroke-linejoin="round" stroke-miterlimit="10" fill="none" fill-rule="evenodd"/><text font-family="Times New Roman,Times New Roman_MSFontService,sans-serif" font-weight="400" font-size="8" transform="translate(515.862 329)">WI</text><text font-family="Times New Roman,Times New Roman_MSFontService,sans-serif" font-weight="400" font-size="8" transform="translate(527.321 329)">-</text><text font-family="Times New Roman,Times New Roman_MSFontService,sans-serif" font-weight="400" font-size="8" transform="translate(531.696 329)">Dane County</text><path d="M469.5 262.5C469.5 253.111 498.825 245.5 535 245.5 571.175 245.5 600.5 253.111 600.5 262.5 600.5 271.889 571.175 279.5 535 279.5 498.825 279.5 469.5 271.889 469.5 262.5Z" stroke="#000000" stroke-width="0.625" stroke-linejoin="round" stroke-miterlimit="10" fill="#70AD47" fill-rule="evenodd"/><text fill="#FFFFFF" font-family="Times New Roman,Times New Roman_MSFontService,sans-serif" font-weight="400" font-size="8" transform="translate(503.249 260)">HydrologicUnits</text><text fill="#FFFFFF" font-family="Times New Roman,Times New Roman_MSFontService,sans-serif" font-weight="400" font-size="8" transform="translate(557.022 260)">.</text><text fill="#FFFFFF" font-family="Times New Roman,Times New Roman_MSFontService,sans-serif" font-weight="400" font-size="8" transform="translate(559.022 260)">shp</text><text fill="#FFFFFF" font-family="Times New Roman,Times New Roman_MSFontService,sans-serif" font-weight="400" font-size="8" transform="translate(501.791 269)">InternallyDrained</text><text fill="#FFFFFF" font-family="Times New Roman,Times New Roman_MSFontService,sans-serif" font-weight="400" font-size="8" transform="translate(558.654 269)">.</text><text fill="#FFFFFF" font-family="Times New Roman,Times New Roman_MSFontService,sans-serif" font-weight="400" font-size="8" transform="translate(560.654 269)">shp</text><path d="M426.5 204C426.5 198.201 450.453 193.5 480 193.5 509.547 193.5 533.5 198.201 533.5 204 533.5 209.799 509.547 214.5 480 214.5 450.453 214.5 426.5 209.799 426.5 204Z" stroke="#000000" stroke-width="0.625" stroke-linejoin="round" stroke-miterlimit="10" fill="#70AD47" fill-rule="evenodd"/><text fill="#FFFFFF" font-family="Times New Roman,Times New Roman_MSFontService,sans-serif" font-weight="400" font-size="8" transform="translate(448.483 206)">Yintdrained</text><text fill="#FFFFFF" font-family="Times New Roman,Times New Roman_MSFontService,sans-serif" font-weight="400" font-size="8" transform="translate(486.253 206)">_</text><text fill="#FFFFFF" font-family="Times New Roman,Times New Roman_MSFontService,sans-serif" font-weight="400" font-size="8" transform="translate(490.253 206)">gdf</text><text fill="#FFFFFF" font-family="Times New Roman,Times New Roman_MSFontService,sans-serif" font-weight="400" font-size="8" transform="translate(500.917 206)">.</text><text fill="#FFFFFF" font-family="Times New Roman,Times New Roman_MSFontService,sans-serif" font-weight="400" font-size="8" transform="translate(502.917 206)">shp</text><path d="M588.083 318.031 538.746 282.12 538.991 281.784 588.328 317.694ZM538.071 284.464 535.5 279.5 541.014 280.421Z"/><path d="M489.04 250.76 434.599 243.274 434.656 242.861 489.096 250.347ZM435.113 245.658 430.5 242.5 435.794 240.704Z"/><path d="M0.0399481-0.204467 98.7932 19.0896 98.7133 19.4985-0.0399481 0.204467ZM98.4148 16.6807 102.843 20.093 97.4561 21.5879Z" transform="matrix(1 0 0 -1 377.5 234.593)"/><path d="M479.758 193.87 394.381 165.031 394.514 164.636 479.891 193.475ZM394.437 167.469 390.5 163.5 396.037 162.732Z"/><path d="M385.5 121C385.5 115.201 404.752 110.5 428.5 110.5 452.248 110.5 471.5 115.201 471.5 121 471.5 126.799 452.248 131.5 428.5 131.5 404.752 131.5 385.5 126.799 385.5 121Z" stroke="#000000" stroke-width="0.625" stroke-linejoin="round" stroke-miterlimit="10" fill="#70AD47" fill-rule="evenodd"/><text fill="#FFFFFF" font-family="Times New Roman,Times New Roman_MSFontService,sans-serif" font-weight="400" font-size="8" transform="translate(406.53 123)">Sub</text><text fill="#FFFFFF" font-family="Times New Roman,Times New Roman_MSFontService,sans-serif" font-weight="400" font-size="8" transform="translate(418.979 123)">_</text><text fill="#FFFFFF" font-family="Times New Roman,Times New Roman_MSFontService,sans-serif" font-weight="400" font-size="8" transform="translate(422.979 123)">catch</text><text fill="#FFFFFF" font-family="Times New Roman,Times New Roman_MSFontService,sans-serif" font-weight="400" font-size="8" transform="translate(439.854 123)">.</text><text fill="#FFFFFF" font-family="Times New Roman,Times New Roman_MSFontService,sans-serif" font-weight="400" font-size="8" transform="translate(441.854 123)">dbf</text><path d="M0.0833739-0.190923 34.2613 14.7342 34.0946 15.116-0.0833739 0.190923ZM34.4147 12.3005 37.9964 16.5926 32.4138 16.8827Z" transform="matrix(1 0 0 -1 390.5 148.093)"/><path d="M0.150588-0.143966 93.3174 97.308 93.0162 97.596-0.150588 0.143966ZM94.3979 95.122 96.046 100.464 90.7838 98.5771Z" transform="matrix(1 0 0 -1 294.5 263.964)"/><path d="M488.5 0.5 597.5 0.5 597.5 150.5 488.5 150.5Z" stroke="#000000" stroke-width="0.625" stroke-linejoin="round" stroke-miterlimit="10" fill="none"/><text font-family="Times New Roman,Times New Roman_MSFontService,sans-serif" font-weight="700" font-size="9" transform="translate(493.75 12)">Legend</text><text font-family="Times New Roman,Times New Roman_MSFontService,sans-serif" font-weight="700" font-size="9" transform="translate(522.253 12)">:</text><text font-family="Times New Roman,Times New Roman_MSFontService,sans-serif" font-weight="400" font-size="9" transform="translate(527.5 133)">Direct input</text><text font-family="Times New Roman,Times New Roman_MSFontService,sans-serif" font-weight="400" font-size="9" transform="translate(526.508 144)">Alternative input</text><path d="M497.5 57.5C497.5 50.8726 512.722 45.5 531.5 45.5 550.278 45.5 565.5 50.8726 565.5 57.5 565.5 64.1274 550.278 69.5 531.5 69.5 512.722 69.5 497.5 64.1274 497.5 57.5Z" stroke="#000000" stroke-width="0.625" stroke-linejoin="round" stroke-miterlimit="10" fill="#4472C4" fill-rule="evenodd"/><text fill="#FFFFFF" font-family="Times New Roman,Times New Roman_MSFontService,sans-serif" font-weight="400" font-size="9" transform="translate(513.705 61)">Raw data</text><path d="M498.5 73.5 563.5 73.5 563.5 90.5 498.5 90.5Z" stroke="#000000" stroke-width="0.625" stroke-linejoin="round" stroke-miterlimit="10" fill="#FFC000"/><text font-family="Times New Roman,Times New Roman_MSFontService,sans-serif" font-weight="400" font-size="9" transform="translate(506.365 85)">Program</text><text font-family="Times New Roman,Times New Roman_MSFontService,sans-serif" font-weight="400" font-size="9" transform="translate(537.36 85)">/</text><text font-family="Times New Roman,Times New Roman_MSFontService,sans-serif" font-weight="400" font-size="9" transform="translate(539.86 85)">tool</text><path d="M491.5 107.5C491.5 100.873 509.856 95.5 532.5 95.5 555.144 95.5 573.5 100.873 573.5 107.5 573.5 114.127 555.144 119.5 532.5 119.5 509.856 119.5 491.5 114.127 491.5 107.5Z" stroke="#000000" stroke-width="0.625" stroke-linejoin="round" stroke-miterlimit="10" fill="#70AD47" fill-rule="evenodd"/><text fill="#FFFFFF" font-family="Times New Roman,Times New Roman_MSFontService,sans-serif" font-weight="400" font-size="9" transform="translate(510.334 110)">Output data</text><path d="M493.5 132.292 512.297 132.292 512.297 132.708 493.5 132.708ZM511.464 130 516.464 132.5 511.464 135Z"/><path d="M494.5 144.292 496.167 144.292 496.167 144.708 494.5 144.708ZM497.417 144.292 499.083 144.292 499.083 144.708 497.417 144.708ZM500.333 144.292 502 144.292 502 144.708 500.333 144.708ZM503.25 144.292 504.917 144.292 504.917 144.708 503.25 144.708ZM506.167 144.292 507.833 144.292 507.833 144.708 506.167 144.708ZM509.083 144.292 510.75 144.292 510.75 144.708 509.083 144.708ZM512 144.292 513.297 144.292 513.297 144.708 512 144.708ZM512.464 142 517.464 144.5 512.464 147Z" fill="#A6A6A6"/><path d="M491.5 32 496.75 21.5 567.25 21.5 572.5 32 567.25 42.5 496.75 42.5Z" stroke="#000000" stroke-width="0.625" stroke-linejoin="round" stroke-miterlimit="10" fill="none" fill-rule="evenodd"/><text font-family="Times New Roman,Times New Roman_MSFontService,sans-serif" font-weight="400" font-size="9" transform="translate(509.914 35)">Data source</text></g></svg>